<?xml version="1.0" encoding="UTF-8" standalone="no"?>
<!-- Generator: Adobe Illustrator 19.0.0, SVG Export Plug-In . SVG Version: 6.00 Build 0)  -->

<svg
   xmlns:dc="http://purl.org/dc/elements/1.1/"
   xmlns:cc="http://creativecommons.org/ns#"
   xmlns:rdf="http://www.w3.org/1999/02/22-rdf-syntax-ns#"
   xmlns:svg="http://www.w3.org/2000/svg"
   xmlns="http://www.w3.org/2000/svg"
   xmlns:sodipodi="http://sodipodi.sourceforge.net/DTD/sodipodi-0.dtd"
   xmlns:inkscape="http://www.inkscape.org/namespaces/inkscape"
   version="1.1"
   id="Layer_1"
   x="0px"
   y="0px"
   viewBox="0 0 500 442.31021"
   xml:space="preserve"
   sodipodi:docname="danger.svg"
   width="500"
   height="442.31021"
   inkscape:version="0.92.4 (5da689c313, 2019-01-14)"><metadata
   id="metadata55"><rdf:RDF><cc:Work
       rdf:about=""><dc:format>image/svg+xml</dc:format><dc:type
         rdf:resource="http://purl.org/dc/dcmitype/StillImage" /><dc:title></dc:title></cc:Work></rdf:RDF></metadata><defs
   id="defs53" /><sodipodi:namedview
   pagecolor="#ffffff"
   bordercolor="#666666"
   borderopacity="1"
   objecttolerance="10"
   gridtolerance="10"
   guidetolerance="10"
   inkscape:pageopacity="0"
   inkscape:pageshadow="2"
   inkscape:window-width="1600"
   inkscape:window-height="837"
   id="namedview51"
   showgrid="false"
   fit-margin-top="0"
   fit-margin-left="0"
   fit-margin-right="0"
   fit-margin-bottom="0"
   inkscape:zoom="0.4609375"
   inkscape:cx="232.74076"
   inkscape:cy="155.77501"
   inkscape:window-x="-8"
   inkscape:window-y="-8"
   inkscape:window-maximized="1"
   inkscape:current-layer="Layer_1"
   inkscape:pagecheckerboard="true" />

<g
   id="g868"
   transform="matrix(1.0741554,0,0,1.0741554,-24.984039,-1.3423133e-4)"><g
     style="fill:#ff5722;fill-opacity:1"
     id="g6">
	<g
   style="fill:#ff5722;fill-opacity:1"
   id="g4">
		<path
   style="fill:#ff5722;fill-opacity:1"
   id="path2"
   d="m 372.096,149.246 -63.556,42.372 c -8.292,5.539 -19.887,2.665 -24.397,-6.81 -3.633,-7.629 -0.362,-16.836 6.669,-21.524 L 355.18,120.371 299.187,24.784 C 279.829,-8.263 232.06,-8.26 212.705,24.786 L 31.68,333.865 c -21.107,31.661 -1.048,77.91 43.567,77.91 h 93.386 L 425.552,240.503 Z M 150.153,356.094 c -9.225,0 -16.704,-7.479 -16.704,-16.704 0,-9.225 7.479,-16.704 16.704,-16.704 9.225,0 16.704,7.479 16.704,16.704 0.001,9.225 -7.477,16.704 -16.704,16.704 z m 102.336,-88.045 -29.755,29.755 c -10.81,10.81 -28.47,10.898 -39.369,0 l -35.323,-35.323 c -10.871,-10.871 -10.871,-28.497 0,-39.369 l 29.755,-29.755 c 10.871,-10.871 28.497,-10.871 39.369,0 l 35.323,35.323 c 10.871,10.872 10.871,28.498 0,39.369 z m 86.979,-12.181 c -9.225,0 -16.704,-7.479 -16.704,-16.704 0,-9.225 7.479,-16.704 16.704,-16.704 9.225,0 16.704,7.479 16.704,16.704 10e-4,9.225 -7.479,16.704 -16.704,16.704 z"
   inkscape:connector-curvature="0" />
	</g>
</g><g
     style="fill:#ff5722;fill-opacity:1"
     id="g12">
	<g
   style="fill:#ff5722;fill-opacity:1"
   id="g10">
		<path
   style="fill:#ff5722;fill-opacity:1"
   id="path8"
   d="M 480.726,334.691 442.466,269.376 228.86,411.775 h 208.097 c 44.01,0 64.241,-46.503 43.769,-77.084 z"
   inkscape:connector-curvature="0" />
	</g>
</g></g>

<g
   id="g20"
   transform="translate(-23.259241,30.535198)">
</g>
<g
   id="g22"
   transform="translate(-23.259241,30.535198)">
</g>
<g
   id="g24"
   transform="translate(-23.259241,30.535198)">
</g>
<g
   id="g26"
   transform="translate(-23.259241,30.535198)">
</g>
<g
   id="g28"
   transform="translate(-23.259241,30.535198)">
</g>
<g
   id="g30"
   transform="translate(-23.259241,30.535198)">
</g>
<g
   id="g32"
   transform="translate(-23.259241,30.535198)">
</g>
<g
   id="g34"
   transform="translate(-23.259241,30.535198)">
</g>
<g
   id="g36"
   transform="translate(-23.259241,30.535198)">
</g>
<g
   id="g38"
   transform="translate(-23.259241,30.535198)">
</g>
<g
   id="g40"
   transform="translate(-23.259241,30.535198)">
</g>
<g
   id="g42"
   transform="translate(-23.259241,30.535198)">
</g>
<g
   id="g44"
   transform="translate(-23.259241,30.535198)">
</g>
<g
   id="g46"
   transform="translate(-23.259241,30.535198)">
</g>
<g
   id="g48"
   transform="translate(-23.259241,30.535198)">
</g>
</svg>